<svg version="1.0" xmlns="http://www.w3.org/2000/svg" viewBox="0 0 422.000000 570.000000" preserveAspectRatio="xMidYMid meet">
  <g transform="translate(0.000000,570.000000) scale(0.100000,-0.100000)" fill="#000000" stroke="none">
    <path d="M2031 5062 c-668 -1500 -1291 -2737 -1673 -3324 l-69 -107 17 -81
    c24 -112 45 -128 198 -150 l111 -15 6 -90 c4 -50 7 -142 8 -206 l1 -116 38 -7
    c20 -3 56 -6 80 -6 43 0 43 0 40 -33 -3 -28 -6 -32 -30 -29 -27 3 -28 2 -28
    -42 0 -42 2 -46 25 -46 24 0 25 -2 25 -70 l0 -70 -55 0 -55 0 0 -39 c0 -42 13
    -51 73 -51 l28 0 -2 -67 -3 -68 42 -3 41 -3 3 68 c3 57 6 68 21 67 9 0 58 -1
    107 -2 l90 -2 0 -70 0 -70 39 0 c44 0 51 12 51 88 0 41 1 42 33 42 17 0 63 -3
    100 -7 l68 -6 -2 -61 -3 -61 42 -3 41 -3 3 62 3 62 95 -2 c143 -3 141 -2 134
    -67 l-7 -54 45 0 45 0 7 147 c3 82 9 196 13 256 l6 107 34 0 34 0 -6 -102
    c-13 -216 -23 -403 -21 -405 0 0 12 -3 26 -5 24 -3 25 0 30 57 l5 60 232 3
    232 2 3 -62 c3 -61 4 -63 28 -60 14 2 26 5 28 7 3 2 -15 357 -23 447 l-5 58
    28 0 29 0 11 -232 c7 -128 12 -243 12 -256 0 -21 4 -23 43 -20 l42 3 -3 51
    c-4 62 -4 62 138 65 l95 2 3 -62 3 -61 39 0 40 0 0 64 0 63 68 6 c37 4 82 7
    100 7 l32 0 0 -66 0 -65 43 3 42 3 1 65 1 65 104 6 c57 3 106 4 108 3 2 -2 6
    -32 8 -68 l6 -66 38 0 39 0 0 69 0 68 50 7 50 7 0 39 0 40 -55 0 -55 0 0 54
    c0 30 -3 61 -6 70 -5 13 1 16 25 16 30 0 31 1 31 46 0 44 -1 45 -27 42 -25 -3
    -28 1 -31 30 -3 32 -3 32 40 32 24 0 60 3 81 6 l37 7 0 202 c0 235 -19 205
    143 226 138 18 165 38 188 145 l17 78 -58 86 c-353 525 -1005 1817 -1670 3307
    -52 117 -97 212 -100 212 -3 0 -38 -75 -79 -167z m49 -389 c15 -120 30 -211
    33 -203 3 8 15 98 27 200 12 102 25 195 28 208 6 18 29 -26 111 -215 568
    -1296 1073 -2331 1375 -2816 52 -84 64 -98 83 -94 20 4 23 0 20 -29 -1 -19 -5
    -34 -8 -34 -4 0 -21 -40 -38 -89 -29 -80 -35 -90 -59 -93 -21 -2 -34 -15 -57
    -58 -30 -55 -30 -56 -35 -255 l-5 -200 -715 -19 c-701 -19 -729 -19 -1446 -1
    l-732 19 -6 195 c-6 189 -8 198 -36 258 -21 44 -35 62 -51 65 -18 2 -29 20
    -54 88 -17 47 -36 84 -41 83 -5 -1 -9 15 -9 36 0 32 2 37 20 34 16 -4 32 15
    84 98 291 468 792 1493 1351 2766 68 155 126 280 128 278 3 -2 17 -102 32
    -222z m250 -3773 l0 -30 -215 0 -215 0 0 23 c0 13 3 27 7 30 3 4 100 7 215 7
    l208 0 0 -30z m-1252 -164 c2 -38 -1 -73 -7 -79 -6 -6 -49 -6 -110 -2 l-101 7
    0 37 c0 20 3 53 6 74 l7 38 101 -3 101 -3 3 -69z m282 -23 c0 -74 -2 -84 -16
    -79 -9 3 -54 6 -100 6 l-84 0 0 78 c0 43 2 81 4 83 2 2 47 3 100 1 l96 -3 0
    -86z m974 75 c16 -61 26 -58 -214 -58 l-220 0 0 40 0 40 214 0 c213 0 214 0
    220 -22z m726 -68 l0 -79 -97 -3 c-54 -2 -99 -3 -100 -3 -1 0 -4 37 -8 82 l-8
    82 99 3 c55 2 102 2 107 0 4 -2 7 -39 7 -82z m294 19 c4 -39 6 -72 4 -74 -2
    -2 -51 -7 -110 -11 l-108 -7 0 82 0 81 104 0 103 0 7 -71z m-1664 9 c0 -29 -3
    -71 -7 -92 l-6 -39 -115 7 c-64 3 -116 7 -118 9 -1 1 1 39 4 85 l5 82 118 0
    119 0 0 -52z m1080 -32 l0 -84 -82 -7 c-46 -4 -99 -5 -118 -3 l-35 3 -3 88 -3
    87 121 0 120 0 0 -84z m-432 -83 l3 -43 -225 0 -226 0 0 38 c0 21 3 42 7 46 4
    3 104 5 222 4 l216 -3 3 -42z"/>
    <path d="M2170 4658 c0 -18 20 -77 44 -130 36 -80 43 -104 39 -138 -3 -22 -9
    -40 -12 -40 -4 0 -25 39 -46 88 -35 77 -40 83 -43 56 -2 -20 11 -59 37 -114
    38 -77 55 -161 34 -160 -5 1 -23 35 -42 78 -42 93 -51 105 -51 67 1 -42 93
    -236 121 -255 22 -14 23 -14 14 5 -12 29 -19 105 -8 105 5 0 25 -36 45 -80 23
    -50 42 -80 52 -80 19 0 16 9 -43 129 -39 82 -51 140 -33 168 5 7 33 -45 71
    -132 37 -85 69 -145 77 -145 8 0 14 4 14 8 0 5 -34 84 -76 176 -72 161 -75
    170 -69 221 8 58 -8 113 -19 65 -3 -14 -7 -34 -8 -45 -2 -12 -20 20 -47 83
    -24 56 -46 102 -48 102 -1 0 -3 -15 -3 -32z"/>
    <path d="M2006 4587 c-39 -87 -55 -97 -56 -34 0 15 -4 27 -9 27 -15 0 -20 -42
    -11 -95 7 -48 4 -57 -57 -195 -101 -225 -94 -207 -79 -213 10 -4 34 39 82 146
    l69 151 8 -44 c8 -40 5 -51 -43 -152 -36 -76 -49 -113 -42 -120 7 -7 24 17 55
    78 43 86 45 88 51 57 4 -19 3 -41 -4 -53 -14 -27 -6 -37 16 -20 25 22 104 200
    103 234 0 27 -6 19 -42 -54 -41 -83 -42 -84 -50 -54 -7 25 -2 45 32 118 23 49
    41 103 40 120 -1 26 -7 17 -43 -59 l-43 -90 -7 50 c-7 45 -3 59 34 140 26 57
    40 100 38 120 -3 26 -8 19 -42 -58z"/>
    <path d="M2050 4128 c-30 -21 -54 -45 -52 -53 1 -7 -2 -25 -8 -39 -13 -34 -36
    -34 -173 3 l-109 30 -19 -42 c-10 -23 -19 -47 -19 -53 0 -8 126 -11 440 -11
    314 0 440 3 440 11 0 6 -9 30 -19 53 l-19 41 -109 -29 c-137 -37 -160 -37
    -173 -3 -6 14 -9 32 -8 39 2 11 -105 98 -115 94 -1 0 -27 -19 -57 -41z"/>
    <path d="M1702 3911 l-19 -31 -11 25 c-6 14 -16 25 -22 25 -15 0 -12 -28 6
    -58 14 -26 13 -31 -19 -102 l-35 -75 -15 35 c-12 30 -16 32 -22 17 -4 -10 -2
    -36 4 -58 12 -39 10 -44 -50 -172 -35 -73 -65 -134 -67 -137 -2 -3 -11 6 -21
    19 -24 32 -34 7 -13 -34 14 -28 13 -33 -84 -227 -95 -192 -99 -198 -115 -177
    -14 19 -17 20 -22 5 -4 -10 0 -27 7 -39 12 -18 13 -26 2 -46 l-13 -24 -13 23
    c-9 18 -14 20 -21 9 -5 -9 -2 -22 7 -36 13 -21 12 -28 -20 -90 -39 -78 -216
    -406 -222 -412 -2 -2 -10 1 -18 8 -18 15 -27 -6 -13 -31 8 -12 -1 -37 -43
    -110 -67 -116 -225 -368 -269 -428 -27 -37 -30 -46 -16 -48 9 -2 18 -2 19 0
    23 27 172 260 246 385 53 90 100 160 103 156 4 -3 -5 -27 -20 -52 -28 -50
    -158 -259 -187 -303 -18 -27 -18 -28 1 -28 13 0 35 27 73 92 85 147 163 263
    167 251 3 -7 -4 -24 -13 -38 -17 -26 -17 -27 1 -24 21 5 74 85 217 334 50 88
    98 164 105 168 7 4 13 17 13 27 0 11 9 29 20 40 11 11 20 26 20 33 0 20 194
    378 203 375 11 -4 29 30 22 41 -3 6 18 57 47 115 39 78 55 102 64 95 17 -14
    28 6 20 36 -4 17 24 83 104 246 60 123 110 230 110 237 0 34 -25 2 -72 -93
    -29 -58 -56 -105 -60 -105 -21 0 -15 45 17 114 37 82 41 96 25 96 -5 0 -26
    -32 -46 -72 -26 -52 -38 -67 -45 -57 -13 21 -11 46 7 81 23 44 2 61 -24 19z"/>
    <path d="M1982 3888 c-16 -29 -127 -228 -245 -443 -118 -214 -315 -570 -436
    -789 -122 -220 -221 -403 -221 -408 0 -5 14 -8 31 -6 29 3 37 13 101 128 269
    480 868 1561 868 1565 0 3 -15 5 -34 5 -31 0 -37 -5 -64 -52z"/>
    <path d="M2140 3936 c0 -5 860 -1555 917 -1653 21 -36 30 -43 55 -43 25 0 29
    3 24 18 -7 18 -60 113 -584 1062 l-340 615 -36 3 c-20 2 -36 1 -36 -2z"/>
    <path d="M2327 3933 c-3 -4 46 -112 107 -239 88 -180 111 -235 105 -252 -9
    -23 -2 -52 11 -52 5 0 10 8 12 18 5 20 110 -181 107 -206 -3 -32 1 -41 15 -36
    9 4 30 -27 66 -98 29 -57 73 -139 98 -183 25 -44 44 -90 44 -102 -1 -14 4 -23
    12 -23 17 0 31 -31 35 -77 0 -7 6 -12 12 -10 6 1 31 -34 56 -78 125 -220 247
    -415 259 -415 17 0 17 5 3 31 -24 45 -1 39 26 -7 103 -178 188 -304 206 -304
    15 0 7 18 -44 98 -107 165 -169 272 -165 284 5 14 2 19 117 -175 117 -198 231
    -367 247 -367 20 0 17 12 -12 51 -40 53 -171 261 -251 398 -54 93 -70 128 -62
    137 13 16 2 37 -16 30 -16 -6 -23 6 -161 265 -96 181 -105 203 -95 226 14 31
    3 53 -15 28 -12 -17 -14 -16 -25 8 -9 21 -9 30 1 42 7 8 9 23 5 32 -6 17 -7
    17 -20 -1 -13 -16 -23 1 -113 180 -99 199 -99 199 -84 231 18 37 8 58 -14 29
    -7 -11 -16 -17 -19 -15 -2 3 -33 66 -69 139 -62 130 -63 135 -51 171 8 21 10
    42 5 50 -10 15 -12 14 -26 -20 -10 -23 -12 -21 -43 45 -29 60 -31 73 -22 100
    13 37 14 64 2 64 -5 0 -13 -9 -16 -20 -9 -27 -19 -25 -33 5 -7 16 -17 23 -26
    19 -13 -5 -12 -12 5 -46 18 -35 19 -45 8 -67 -12 -26 -12 -25 -43 41 -20 45
    -37 68 -48 68 -14 0 -10 -14 23 -85 35 -74 38 -88 28 -107 -12 -21 -16 -16
    -65 87 -49 103 -66 127 -77 108z"/>
    <path d="M2100 3878 c0 -18 -5 -179 -11 -358 -11 -355 -9 -344 -74 -377 -38
    -20 -128 -19 -178 2 -20 8 -54 31 -75 49 l-38 35 -41 -75 -42 -74 469 0 469 0
    -42 75 -42 74 -30 -28 c-91 -87 -240 -99 -307 -24 -15 17 -19 60 -28 344 -5
    178 -10 339 -10 357 0 17 -4 32 -10 32 -5 0 -10 -15 -10 -32z"/>
    <path d="M1905 3554 c-152 -275 -158 -287 -144 -312 8 -13 23 -31 35 -39 20
    -13 26 -6 141 185 l121 199 7 126 c4 70 5 127 3 127 -2 0 -76 -129 -163 -286z"/>
    <path d="M2155 3722 l6 -123 121 -200 c66 -109 126 -199 133 -199 15 0 55 46
    55 64 0 11 -282 525 -308 561 -12 18 -13 5 -7 -103z"/>
    <path d="M1596 2998 c-25 -44 -26 -50 -10 -43 91 37 172 45 230 20 119 -49
    230 -219 274 -417 7 -32 16 -58 19 -58 3 0 16 39 28 86 43 165 137 316 230
    371 42 25 58 28 128 28 55 -1 90 -6 112 -18 18 -9 35 -17 38 -17 3 0 -6 22
    -22 50 l-28 50 -485 0 -485 0 -29 -52z m565 -38 c21 -12 49 -60 49 -85 0 -54
    -51 -105 -105 -105 -34 0 -83 45 -91 84 -6 37 14 88 43 105 23 13 79 14 104 1z"/>
    <path d="M2080 2947 c-34 -17 -55 -57 -46 -90 19 -79 107 -90 144 -20 18 33
    15 59 -10 87 -29 31 -57 39 -88 23z"/>
    <path d="M1605 2930 c-22 -10 -47 -25 -56 -32 -8 -7 -101 -166 -206 -354 -190
    -340 -190 -341 -172 -365 10 -13 20 -22 22 -19 4 4 105 172 459 758 23 38 13
    41 -47 12z"/>
    <path d="M2563 2939 c12 -31 466 -774 474 -776 4 -2 14 6 20 16 11 17 -12 63
    -179 363 -105 189 -199 349 -207 356 -22 17 -62 38 -90 47 -18 6 -23 4 -18 -6z"/>
    <path d="M1661 2874 c-12 -20 -20 -38 -18 -41 2 -2 70 -2 151 -1 l147 3 -34
    38 -35 37 -95 0 -95 0 -21 -36z"/>
    <path d="M2313 2873 l-34 -38 75 -3 c41 -2 111 -2 156 0 l80 3 -25 38 -26 37
    -96 0 -95 0 -35 -37z"/>
    <path d="M1553 2695 c-13 -19 -23 -38 -23 -43 0 -9 485 -10 495 -1 3 4 -1 23
    -9 43 l-15 36 -213 0 -213 0 -22 -35z"/>
    <path d="M2204 2695 c-7 -19 -14 -38 -14 -44 0 -5 106 -8 255 -8 140 1 255 3
    255 4 0 2 -11 21 -25 43 l-25 40 -216 0 -215 0 -15 -35z"/>
    <path d="M1452 2530 l-23 -40 325 0 324 0 -10 40 -10 40 -292 0 -291 0 -23
    -40z"/>
    <path d="M2152 2530 l-10 -40 324 0 c178 0 324 3 324 6 0 4 -9 22 -21 40 l-21
    34 -293 0 -293 0 -10 -40z"/>
    <path d="M1361 2376 c-12 -18 -21 -36 -21 -40 0 -3 158 -6 350 -6 343 0 350 0
    350 20 0 14 7 20 23 20 29 0 37 7 30 26 -4 12 -65 14 -358 14 l-353 0 -21 -34z"/>
    <path d="M2127 2396 c-7 -19 1 -26 30 -26 16 0 23 -6 23 -20 0 -20 7 -20 356
    -20 l355 0 -22 40 -23 40 -357 0 c-297 0 -358 -2 -362 -14z"/>
    <path d="M2061 2303 c-6 -21 -11 -44 -11 -50 0 -18 -7 -16 -40 7 -27 19 -29
    19 -51 2 -31 -26 -19 -48 29 -55 43 -7 92 -40 92 -63 0 -11 -16 -14 -70 -14
    -60 0 -72 -3 -94 -25 l-25 -25 -381 0 -381 0 -20 35 -21 35 -81 0 -82 0 -28
    -51 c-16 -28 -26 -53 -23 -56 3 -3 281 -11 618 -18 472 -9 755 -9 1231 1 340
    6 620 14 623 17 3 3 -7 28 -23 56 l-28 51 -82 0 -81 0 -22 -35 -22 -35 -379 0
    -380 0 -25 25 c-22 22 -34 25 -94 25 -52 0 -70 3 -70 13 0 23 37 49 87 62 55
    14 65 35 29 58 -23 15 -26 15 -49 -3 -29 -23 -37 -25 -37 -7 0 6 -5 29 -11 50
    -9 35 -12 37 -49 37 -37 0 -40 -2 -49 -37z"/>
    <path d="M1938 1956 c-24 -16 -58 -40 -77 -54 l-34 -25 24 -18 c22 -17 47 -19
    264 -19 218 0 242 2 264 19 l24 18 -79 54 -79 53 -132 1 c-129 0 -132 0 -175
    -29z"/>
    <path d="M677 1819 c-16 -28 -27 -52 -25 -54 2 -1 330 -8 731 -14 540 -8 914
    -8 1455 0 400 6 728 13 730 14 2 2 -9 26 -25 54 l-28 51 -75 0 c-71 0 -76 -1
    -110 -35 l-35 -34 -465 -15 c-460 -16 -464 -15 -485 4 -20 19 -36 20 -234 20
    -195 0 -214 -2 -239 -20 -27 -19 -32 -19 -487 -4 l-460 15 -35 34 c-34 34 -39
    35 -110 35 l-75 0 -28 -51z"/>
    <path d="M644 1628 c3 -13 6 -29 6 -35 0 -10 298 -13 1455 -13 1289 0 1454 -2
    1449 -15 -5 -13 -175 -15 -1445 -15 -1272 0 -1439 -2 -1439 -15 0 -9 9 -15 24
    -15 27 0 24 6 91 -185 19 -55 35 -103 35 -107 0 -5 -18 -8 -40 -8 l-40 0 0 68
    c0 81 -46 215 -75 221 -14 2 -16 -1 -10 -15 55 -137 55 -139 55 -300 0 -114 3
    -156 13 -159 6 -3 323 -13 702 -24 667 -17 712 -17 1345 0 360 10 672 18 693
    18 l37 1 0 155 c0 142 2 160 26 222 14 38 27 84 30 103 4 34 20 98 31 126 4
    12 -192 14 -1472 14 l-1477 0 6 -22z m659 -123 c8 -20 -4 -115 -14 -115 -16 0
    -9 -37 11 -63 18 -23 50 -88 50 -102 0 -9 -489 -5 -494 4 -3 5 -28 72 -56 150
    l-49 141 273 0 c232 0 275 -2 279 -15z m1497 -5 c7 -14 8 -26 0 -39 -5 -11
    -10 -31 -10 -45 0 -14 -4 -27 -10 -31 -12 -7 -3 -32 25 -70 12 -17 26 -45 29
    -63 l8 -32 -736 0 -735 0 11 32 c6 18 22 48 35 67 25 37 26 72 2 133 -8 18 -7
    32 1 47 11 21 11 21 690 21 669 0 679 0 690 -20z m615 -127 l-52 -148 -247 -3
    -247 -2 6 22 c4 13 13 34 21 48 47 89 49 93 37 97 -7 3 -13 20 -13 38 0 19 -4
    36 -10 40 -6 3 -5 15 2 30 l11 25 272 0 272 0 -52 -147z m55 -267 l0 -43 -127
    -7 c-71 -3 -257 -9 -415 -12 l-288 -7 0 52 c0 45 -3 52 -17 49 -14 -3 -18 -13
    -18 -51 0 -26 -3 -47 -7 -47 -5 0 -8 23 -8 51 0 43 -3 50 -17 47 -24 -4 -28
    -78 -5 -95 13 -11 -23 -13 -189 -15 -271 -3 -730 2 -751 9 -14 3 -18 15 -18
    54 0 43 -3 50 -17 47 -14 -3 -18 -13 -18 -52 l1 -49 -291 7 c-159 3 -347 9
    -417 12 l-128 7 0 43 0 44 1365 0 1365 0 0 -44z"/>
    <path d="M2010 1370 l0 -131 106 3 105 3 0 125 0 125 -105 3 -106 3 0 -131z"/>
  </g>
</svg>
